<svg xmlns="http://www.w3.org/2000/svg" xmlns:xlink="http://www.w3.org/1999/xlink" viewBox="3009.5 2722.716 150.5 141.784"><defs><style>.a{fill:#fff;}.b,.d{fill:#70c3de;}.c{opacity:0.7;}.d,.e{opacity:0.33;}.f{filter:url(#a);}</style><filter id="a" x="3009.5" y="2729.5" width="135" height="135" filterUnits="userSpaceOnUse"><feOffset dy="5" input="SourceAlpha"/><feGaussianBlur stdDeviation="7.5" result="b"/><feFlood flood-color="#70c3de" flood-opacity="0.302"/><feComposite operator="in" in2="b"/><feComposite in="SourceGraphic"/></filter></defs><g transform="translate(2872)"><g class="f" transform="matrix(1, 0, 0, 1, -2872, 0)"><circle class="a" cx="45" cy="45" r="45" transform="translate(3032 2747)"/></g><g transform="translate(173.24 2765.3)"><g transform="translate(13.76 4.7)"><path class="b" d="M54.036,11.33c-.023-1.188-.044-2.31-.044-3.4a1.54,1.54,0,0,0-1.54-1.54c-6.587,0-11.6-1.893-15.781-5.957a1.54,1.54,0,0,0-2.147,0C30.344,4.5,25.33,6.394,18.744,6.394a1.54,1.54,0,0,0-1.54,1.54c0,1.086-.021,2.209-.044,3.4-.211,11.055-.5,26.2,17.933,32.585a1.538,1.538,0,0,0,1.009,0C54.536,37.526,54.247,22.385,54.036,11.33ZM35.6,40.826C19.788,35.083,20.027,22.5,20.239,11.389c.013-.667.025-1.313.034-1.947A23.749,23.749,0,0,0,35.6,3.634,23.753,23.753,0,0,0,50.923,9.442c.009.633.021,1.28.034,1.946C51.169,22.5,51.407,35.083,35.6,40.826Z" transform="translate(-17.112 0)"/><path class="b" d="M81.744,79.337,74.31,86.77,71.138,83.6a1.54,1.54,0,0,0-2.178,2.178l4.261,4.261a1.54,1.54,0,0,0,2.178,0l8.522-8.522a1.54,1.54,0,1,0-2.178-2.178Z" transform="translate(-57.955 -62.687)"/></g></g><g class="c"><path class="d" d="M8.384,0H.616A.617.617,0,0,0,0,.616V8.353a.617.617,0,0,0,.616.616H8.384A.617.617,0,0,0,9,8.353V.616A.617.617,0,0,0,8.384,0ZM1.726,8.211a.968.968,0,1,1,.968-.968A.968.968,0,0,1,1.726,8.211Zm0-5.517a.968.968,0,1,1,.968-.968A.968.968,0,0,1,1.726,2.694ZM4.5,5.468A.968.968,0,1,1,5.468,4.5.968.968,0,0,1,4.5,5.468ZM7.274,8.211a.968.968,0,1,1,.968-.968A.968.968,0,0,1,7.274,8.211Zm0-5.517a.968.968,0,1,1,.968-.968A.968.968,0,0,1,7.274,2.694Z" transform="translate(229.516 2723.142) rotate(45)"/><g class="e" transform="translate(257.927 2722.716) rotate(90)"><g transform="translate(0 0)"><path class="b" d="M8,0H1A1,1,0,0,0,0,1V8A1,1,0,0,0,1,9H8A1,1,0,0,0,9,8V1A1,1,0,0,0,8,0ZM2.25,7.5A.75.75,0,1,1,3,6.75.749.749,0,0,1,2.25,7.5Zm0-4.5A.75.75,0,1,1,3,2.25.749.749,0,0,1,2.25,3ZM4.5,5.25a.75.75,0,1,1,.75-.75A.749.749,0,0,1,4.5,5.25ZM6.75,7.5a.75.75,0,1,1,.75-.75A.749.749,0,0,1,6.75,7.5Zm0-4.5a.75.75,0,1,1,.75-.75A.749.749,0,0,1,6.75,3Z" transform="translate(0 0)"/></g></g><g class="e" transform="translate(264.827 2743.391) rotate(66)"><path class="b" d="M8.284,0H.716A.715.715,0,0,0,0,.715V7.875a.716.716,0,0,0,.716.715H8.284A.716.716,0,0,0,9,7.875V.715A.716.716,0,0,0,8.284,0ZM4.5,4.972a.926.926,0,1,1,.926-.925A.927.927,0,0,1,4.5,4.972Z" transform="translate(0 0)"/></g><g class="e" transform="translate(276.752 2782.55) rotate(92)"><path class="b" d="M0,.749v7.93a.749.749,0,0,0,.749.75h7.5A.75.75,0,0,0,9,8.679V.749A.751.751,0,0,0,8.25,0H.749A.75.75,0,0,0,0,.749ZM2.853,7.275a.97.97,0,1,1-.97-.97A.971.971,0,0,1,2.853,7.275ZM8.065,1.955a.97.97,0,1,1-.971-.97A.971.971,0,0,1,8.065,1.955Z" transform="translate(0 0)"/></g><g class="e" transform="matrix(0.454, 0.891, -0.891, 0.454, 283.914, 2815.662)"><path class="b" d="M8.284,0H.715A.716.716,0,0,0,0,.716V7.874a.715.715,0,0,0,.715.715H8.284A.716.716,0,0,0,9,7.874V.716A.717.717,0,0,0,8.284,0ZM2.056,2.723A.926.926,0,1,1,2.982,1.8.926.926,0,0,1,2.056,2.723Zm5,4.949a.926.926,0,1,1,.926-.926A.927.927,0,0,1,7.058,7.671ZM7,2.739a.926.926,0,1,1,.926-.925A.926.926,0,0,1,7,2.739ZM2.078,7.65a.926.926,0,1,1,.927-.927A.927.927,0,0,1,2.078,7.65Z" transform="translate(0 0)"/></g><g class="e" transform="translate(274.078 2839.137) rotate(100)"><path class="b" d="M0,.751V8.68a.749.749,0,0,0,.749.75h7.5A.75.75,0,0,0,9,8.68V.751A.752.752,0,0,0,8.25,0H.749A.751.751,0,0,0,0,.751ZM2.852,7.276a.97.97,0,1,1-.97-.971A.971.971,0,0,1,2.852,7.276Zm5.212-5.32a.971.971,0,1,1-.97-.97A.97.97,0,0,1,8.064,1.956ZM5.47,4.716a.97.97,0,1,1-.97-.97A.97.97,0,0,1,5.47,4.716Z" transform="translate(0 0)"/></g><g class="e" transform="translate(286.324 2757.518) rotate(83)"><path class="b" d="M0,.751V8.68a.749.749,0,0,0,.749.75h7.5A.75.75,0,0,0,9,8.68V.751A.752.752,0,0,0,8.25,0H.749A.751.751,0,0,0,0,.751ZM2.852,7.276a.97.97,0,1,1-.97-.971A.971.971,0,0,1,2.852,7.276Zm5.212-5.32a.971.971,0,1,1-.97-.97A.97.97,0,0,1,8.064,1.956ZM5.47,4.716a.97.97,0,1,1-.97-.97A.97.97,0,0,1,5.47,4.716Z" transform="translate(0 0)"/></g></g></g></svg>