<svg xmlns="http://www.w3.org/2000/svg" viewBox="3547.5 3380.5 15.809 23.214"><defs><style>.a,.b{fill:#70c3de;stroke:#70c3de;}.b{stroke-width:0.5px;}</style></defs><g transform="translate(3512.931 3381)"><g transform="translate(35.069)"><path class="a" d="M42.474,0a7.411,7.411,0,0,0-7.4,7.4v7.412a7.4,7.4,0,0,0,14.809,0V7.4A7.411,7.411,0,0,0,42.474,0Zm6.582,14.813a6.582,6.582,0,0,1-13.164,0V7.4a6.582,6.582,0,0,1,13.164,0Z" transform="translate(-35.069)"/><path class="b" d="M101.721,23.379a.411.411,0,0,0-.411.411v3.725a.411.411,0,0,0,.823,0V23.79A.411.411,0,0,0,101.721,23.379Z" transform="translate(-94.317 -20.911)"/></g></g></svg>