<svg xmlns="http://www.w3.org/2000/svg" xmlns:xlink="http://www.w3.org/1999/xlink" viewBox="3729.5 2048 141.573 144.5"><defs><style>.a{opacity:0.7;}.b,.d{fill:#70c3de;}.b,.c{opacity:0.33;}.e{fill:#fff;}.f{filter:url(#a);}</style><filter id="a" x="3729.5" y="2057.5" width="135" height="135" filterUnits="userSpaceOnUse"><feOffset dy="5" input="SourceAlpha"/><feGaussianBlur stdDeviation="7.5" result="b"/><feFlood flood-color="#70c3de" flood-opacity="0.302"/><feComposite operator="in" in2="b"/><feComposite in="SourceGraphic"/></filter></defs><g transform="translate(2872)"><g class="a"><path class="b" d="M8.384,0H.616A.617.617,0,0,0,0,.616V8.353a.617.617,0,0,0,.616.616H8.384A.617.617,0,0,0,9,8.353V.616A.617.617,0,0,0,8.384,0ZM1.726,8.211a.968.968,0,1,1,.968-.968A.968.968,0,0,1,1.726,8.211Zm0-5.517a.968.968,0,1,1,.968-.968A.968.968,0,0,1,1.726,2.694ZM4.5,5.468A.968.968,0,1,1,5.468,4.5.968.968,0,0,1,4.5,5.468ZM7.274,8.211a.968.968,0,1,1,.968-.968A.968.968,0,0,1,7.274,8.211Zm0-5.517a.968.968,0,1,1,.968-.968A.968.968,0,0,1,7.274,2.694Z" transform="translate(940.59 2051.294) rotate(45)"/><g class="c" transform="translate(969 2048) rotate(90)"><g transform="translate(0 0)"><path class="d" d="M8,0H1A1,1,0,0,0,0,1V8A1,1,0,0,0,1,9H8A1,1,0,0,0,9,8V1A1,1,0,0,0,8,0ZM2.25,7.5A.75.75,0,1,1,3,6.75.749.749,0,0,1,2.25,7.5Zm0-4.5A.75.75,0,1,1,3,2.25.749.749,0,0,1,2.25,3ZM4.5,5.25a.75.75,0,1,1,.75-.75A.749.749,0,0,1,4.5,5.25ZM6.75,7.5a.75.75,0,1,1,.75-.75A.749.749,0,0,1,6.75,7.5Zm0-4.5a.75.75,0,1,1,.75-.75A.749.749,0,0,1,6.75,3Z" transform="translate(0 0)"/></g></g><g class="c" transform="translate(975.9 2071.543) rotate(66)"><path class="d" d="M8.284,0H.716A.715.715,0,0,0,0,.715V7.875a.716.716,0,0,0,.716.715H8.284A.716.716,0,0,0,9,7.875V.715A.716.716,0,0,0,8.284,0ZM4.5,4.972a.926.926,0,1,1,.926-.925A.927.927,0,0,1,4.5,4.972Z" transform="translate(0 0)"/></g><g class="c" transform="translate(987.825 2110.702) rotate(92)"><path class="d" d="M0,.749v7.93a.749.749,0,0,0,.749.75h7.5A.75.75,0,0,0,9,8.679V.749A.751.751,0,0,0,8.25,0H.749A.75.75,0,0,0,0,.749ZM2.853,7.275a.97.97,0,1,1-.97-.97A.971.971,0,0,1,2.853,7.275ZM8.065,1.955a.97.97,0,1,1-.971-.97A.971.971,0,0,1,8.065,1.955Z" transform="translate(0 0)"/></g><g class="c" transform="matrix(0.454, 0.891, -0.891, 0.454, 994.988, 2143.814)"><path class="d" d="M8.284,0H.715A.716.716,0,0,0,0,.716V7.874a.715.715,0,0,0,.715.715H8.284A.716.716,0,0,0,9,7.874V.716A.717.717,0,0,0,8.284,0ZM2.056,2.723A.926.926,0,1,1,2.982,1.8.926.926,0,0,1,2.056,2.723Zm5,4.949a.926.926,0,1,1,.926-.926A.927.927,0,0,1,7.058,7.671ZM7,2.739a.926.926,0,1,1,.926-.925A.926.926,0,0,1,7,2.739ZM2.078,7.65a.926.926,0,1,1,.927-.927A.927.927,0,0,1,2.078,7.65Z" transform="translate(0 0)"/></g><g class="c" transform="translate(985.151 2167.289) rotate(100)"><path class="d" d="M0,.751V8.68a.749.749,0,0,0,.749.75h7.5A.75.75,0,0,0,9,8.68V.751A.752.752,0,0,0,8.25,0H.749A.751.751,0,0,0,0,.751ZM2.852,7.276a.97.97,0,1,1-.97-.971A.971.971,0,0,1,2.852,7.276Zm5.212-5.32a.971.971,0,1,1-.97-.97A.97.97,0,0,1,8.064,1.956ZM5.47,4.716a.97.97,0,1,1-.97-.97A.97.97,0,0,1,5.47,4.716Z" transform="translate(0 0)"/></g><g class="c" transform="translate(997.398 2085.67) rotate(83)"><path class="d" d="M0,.751V8.68a.749.749,0,0,0,.749.75h7.5A.75.75,0,0,0,9,8.68V.751A.752.752,0,0,0,8.25,0H.749A.751.751,0,0,0,0,.751ZM2.852,7.276a.97.97,0,1,1-.97-.971A.971.971,0,0,1,2.852,7.276Zm5.212-5.32a.971.971,0,1,1-.97-.97A.97.97,0,0,1,8.064,1.956ZM5.47,4.716a.97.97,0,1,1-.97-.97A.97.97,0,0,1,5.47,4.716Z" transform="translate(0 0)"/></g></g><g class="f" transform="matrix(1, 0, 0, 1, -2872, 0)"><circle class="e" cx="45" cy="45" r="45" transform="translate(3752 2075)"/></g><g transform="translate(895.789 2098.3)"><path class="d" d="M45.994,28.349a5.18,5.18,0,0,0,1.212-3.462,5.318,5.318,0,0,0-1.134-3,4.661,4.661,0,0,0-1.107-5.363c-1.387-1.264-3.741-1.831-7-1.674a27.366,27.366,0,0,0-4.29.549h-.009c-.436.078-.9.174-1.369.279a15.213,15.213,0,0,1,1.09-5.066c1.221-3.715,1.151-6.558-.227-8.459A5.543,5.543,0,0,0,28.72,0a2.19,2.19,0,0,0-1.683.767c-.968,1.125-.855,3.2-.732,4.16C25.153,8.014,21.927,15.583,19.2,17.685a.933.933,0,0,0-.14.122,9.368,9.368,0,0,0-1.709,2.564,3.6,3.6,0,0,0-1.727-.436H10.3a3.63,3.63,0,0,0-3.628,3.628v14.17A3.63,3.63,0,0,0,10.3,41.36h5.319a3.62,3.62,0,0,0,2.093-.663l2.049.244a87.8,87.8,0,0,0,11.624.637c1.038.078,2.014.122,2.921.122a19.565,19.565,0,0,0,4.055-.366c2.668-.567,4.491-1.7,5.415-3.366a5.337,5.337,0,0,0,.593-3.34A5.562,5.562,0,0,0,46.352,30.1,5.89,5.89,0,0,0,45.994,28.349ZM10.3,39.005a1.275,1.275,0,0,1-1.273-1.273V23.553A1.275,1.275,0,0,1,10.3,22.28h5.319A1.275,1.275,0,0,1,16.9,23.553v14.17A1.275,1.275,0,0,1,15.622,39H10.3ZM43.762,27.329A1.172,1.172,0,0,0,43.6,28.75a3.628,3.628,0,0,1,.4,1.456,3.49,3.49,0,0,1-1.639,3.017,1.188,1.188,0,0,0-.4,1.343,3.08,3.08,0,0,1-.235,2.25c-.584,1.046-1.884,1.8-3.854,2.215a22.973,22.973,0,0,1-6.357.192H31.4A86.075,86.075,0,0,1,20.06,38.6h-.009l-.881-.1a3.7,3.7,0,0,0,.078-.767V23.553a3.689,3.689,0,0,0-.166-1.081,7.288,7.288,0,0,1,1.622-2.991c3.915-3.1,7.744-13.577,7.909-14.031a1.1,1.1,0,0,0,.052-.584,5.45,5.45,0,0,1,.113-2.529A3.129,3.129,0,0,1,31.24,3.514c.889,1.23.855,3.427-.1,6.34-1.465,4.439-1.587,6.776-.427,7.8a1.9,1.9,0,0,0,1.9.34c.532-.122,1.038-.227,1.517-.305l.113-.026c2.677-.584,7.473-.942,9.139.576a2.509,2.509,0,0,1,.3,3.183,1.166,1.166,0,0,0,.209,1.517,3.3,3.3,0,0,1,.968,2.032A3.238,3.238,0,0,1,43.762,27.329Z" transform="translate(1 -3)"/></g></g></svg>