<svg xmlns="http://www.w3.org/2000/svg" viewBox="2872 927.181 1366 896.819"><defs><style>.a{fill:#fff;}.b{fill:#fafafa;}.c{opacity:0.36;}.d,.f{fill:#70c3de;}.d,.e{opacity:0.33;}</style></defs><g transform="translate(2872)"><path class="a" d="M0,19.716H608.351S637.7,0,682.1,0s69.589,19.716,69.589,19.716H1366V532H0Z" transform="translate(0 1292)"/><path class="b" d="M0-85.2s241.2-23.1,560,176c197.2,80.6,678.5,269.316,806,231.416V416H0Z" transform="translate(0 1013.2)"/><rect class="b" width="1366" height="464" transform="translate(0 1360)"/><g class="c" transform="translate(901.251 -1252.022) rotate(20)"><path class="d" d="M16.542,0H1.216A1.218,1.218,0,0,0,0,1.216V16.481A1.218,1.218,0,0,0,1.216,17.7H16.542a1.218,1.218,0,0,0,1.216-1.216V1.216A1.218,1.218,0,0,0,16.542,0ZM3.406,16.2a1.911,1.911,0,1,1,1.911-1.911A1.911,1.911,0,0,1,3.406,16.2Zm0-10.886A1.911,1.911,0,1,1,5.316,3.406,1.911,1.911,0,0,1,3.406,5.316ZM8.879,10.79A1.911,1.911,0,1,1,10.79,8.879,1.911,1.911,0,0,1,8.879,10.79ZM14.352,16.2a1.911,1.911,0,1,1,1.911-1.911A1.911,1.911,0,0,1,14.352,16.2Zm0-10.886a1.911,1.911,0,1,1,1.911-1.911A1.911,1.911,0,0,1,14.352,5.316Z" transform="translate(925.056 2041.438) rotate(45)"/><path class="d" d="M16.542,0H1.216A1.218,1.218,0,0,0,0,1.216V16.481A1.218,1.218,0,0,0,1.216,17.7H16.542a1.218,1.218,0,0,0,1.216-1.216V1.216A1.218,1.218,0,0,0,16.542,0ZM3.406,16.2a1.911,1.911,0,1,1,1.911-1.911A1.911,1.911,0,0,1,3.406,16.2Zm0-10.886A1.911,1.911,0,1,1,5.316,3.406,1.911,1.911,0,0,1,3.406,5.316ZM8.879,10.79A1.911,1.911,0,1,1,10.79,8.879,1.911,1.911,0,0,1,8.879,10.79ZM14.352,16.2a1.911,1.911,0,1,1,1.911-1.911A1.911,1.911,0,0,1,14.352,16.2Zm0-10.886a1.911,1.911,0,1,1,1.911-1.911A1.911,1.911,0,0,1,14.352,5.316Z" transform="translate(979.287 2247.1) rotate(45)"/><g class="e" transform="translate(1001.544 2047.615) rotate(90)"><g transform="translate(0 0)"><path class="f" d="M15.785,0H1.973A1.973,1.973,0,0,0,0,1.973V15.785a1.973,1.973,0,0,0,1.973,1.973H15.785a1.973,1.973,0,0,0,1.973-1.973V1.973A1.973,1.973,0,0,0,15.785,0ZM4.44,14.8a1.48,1.48,0,1,1,1.48-1.48A1.478,1.478,0,0,1,4.44,14.8Zm0-8.879a1.48,1.48,0,1,1,1.48-1.48A1.478,1.478,0,0,1,4.44,5.919Zm4.44,4.44a1.48,1.48,0,1,1,1.48-1.48A1.478,1.478,0,0,1,8.879,10.359Zm4.44,4.44a1.48,1.48,0,1,1,1.48-1.48A1.478,1.478,0,0,1,13.319,14.8Zm0-8.879A1.48,1.48,0,1,1,14.8,4.44,1.478,1.478,0,0,1,13.319,5.919Z" transform="translate(0 0)"/></g></g><g class="e" transform="translate(1041.068 2230.93) rotate(90)"><g transform="translate(0 0)"><path class="f" d="M15.785,0H1.973A1.973,1.973,0,0,0,0,1.973V15.785a1.973,1.973,0,0,0,1.973,1.973H15.785a1.973,1.973,0,0,0,1.973-1.973V1.973A1.973,1.973,0,0,0,15.785,0ZM4.44,14.8a1.48,1.48,0,1,1,1.48-1.48A1.478,1.478,0,0,1,4.44,14.8Zm0-8.879a1.48,1.48,0,1,1,1.48-1.48A1.478,1.478,0,0,1,4.44,5.919Zm4.44,4.44a1.48,1.48,0,1,1,1.48-1.48A1.478,1.478,0,0,1,8.879,10.359Zm4.44,4.44a1.48,1.48,0,1,1,1.48-1.48A1.478,1.478,0,0,1,13.319,14.8Zm0-8.879A1.48,1.48,0,1,1,14.8,4.44,1.478,1.478,0,0,1,13.319,5.919Z" transform="translate(0 0)"/></g></g><g class="e" transform="translate(962.766 2114.129) rotate(90)"><g transform="translate(0 0)"><path class="f" d="M15.785,0H1.973A1.973,1.973,0,0,0,0,1.973V15.785a1.973,1.973,0,0,0,1.973,1.973H15.785a1.973,1.973,0,0,0,1.973-1.973V1.973A1.973,1.973,0,0,0,15.785,0ZM4.44,14.8a1.48,1.48,0,1,1,1.48-1.48A1.478,1.478,0,0,1,4.44,14.8Zm0-8.879a1.48,1.48,0,1,1,1.48-1.48A1.478,1.478,0,0,1,4.44,5.919Zm4.44,4.44a1.48,1.48,0,1,1,1.48-1.48A1.478,1.478,0,0,1,8.879,10.359Zm4.44,4.44a1.48,1.48,0,1,1,1.48-1.48A1.478,1.478,0,0,1,13.319,14.8Zm0-8.879A1.48,1.48,0,1,1,14.8,4.44,1.478,1.478,0,0,1,13.319,5.919Z" transform="translate(0 0)"/></g></g><g class="e" transform="translate(990.535 2086.693) rotate(66)"><path class="f" d="M16.345,0H1.412A1.411,1.411,0,0,0,0,1.411V15.537a1.412,1.412,0,0,0,1.412,1.411H16.345a1.414,1.414,0,0,0,1.413-1.411V1.411A1.412,1.412,0,0,0,16.345,0ZM8.879,9.81a1.828,1.828,0,1,1,1.827-1.826A1.828,1.828,0,0,1,8.879,9.81Z" transform="translate(0 0)"/></g><g class="e" transform="translate(1086.154 2349.406) rotate(66)"><path class="f" d="M16.345,0H1.412A1.411,1.411,0,0,0,0,1.411V15.537a1.412,1.412,0,0,0,1.412,1.411H16.345a1.414,1.414,0,0,0,1.413-1.411V1.411A1.412,1.412,0,0,0,16.345,0ZM8.879,9.81a1.828,1.828,0,1,1,1.827-1.826A1.828,1.828,0,0,1,8.879,9.81Z" transform="translate(0 0)"/></g><g class="e" transform="translate(1076.456 2170.203) rotate(92)"><path class="f" d="M0,1.479V17.125A1.478,1.478,0,0,0,1.479,18.6h14.8a1.479,1.479,0,0,0,1.479-1.479V1.479A1.481,1.481,0,0,0,16.278,0H1.479A1.48,1.48,0,0,0,0,1.479ZM5.628,14.354a1.915,1.915,0,1,1-1.915-1.915A1.916,1.916,0,0,1,5.628,14.354Zm10.285-10.5A1.915,1.915,0,1,1,14,1.943,1.917,1.917,0,0,1,15.913,3.858Z" transform="translate(0 0)"/></g><g class="e" transform="translate(1002.104 2142.065) rotate(92)"><path class="f" d="M0,1.479V17.125A1.478,1.478,0,0,0,1.479,18.6h14.8a1.479,1.479,0,0,0,1.479-1.479V1.479A1.481,1.481,0,0,0,16.278,0H1.479A1.48,1.48,0,0,0,0,1.479ZM5.628,14.354a1.915,1.915,0,1,1-1.915-1.915A1.916,1.916,0,0,1,5.628,14.354Zm10.285-10.5A1.915,1.915,0,1,1,14,1.943,1.917,1.917,0,0,1,15.913,3.858Z" transform="translate(0 0)"/></g><g class="e" transform="matrix(0.454, 0.891, -0.891, 0.454, 1076.452, 2278.966)"><path class="f" d="M16.345,0H1.411A1.412,1.412,0,0,0,0,1.412V15.536a1.411,1.411,0,0,0,1.411,1.411H16.345a1.413,1.413,0,0,0,1.413-1.411V1.412A1.414,1.414,0,0,0,16.345,0ZM4.056,5.372A1.827,1.827,0,1,1,5.884,3.546,1.828,1.828,0,0,1,4.056,5.372Zm9.87,9.765a1.827,1.827,0,1,1,1.827-1.827A1.828,1.828,0,0,1,13.926,15.137ZM13.821,5.4a1.827,1.827,0,1,1,1.827-1.826A1.828,1.828,0,0,1,13.821,5.4ZM4.1,15.1a1.827,1.827,0,1,1,1.829-1.829A1.83,1.83,0,0,1,4.1,15.1Z" transform="translate(0 0)"/></g><g class="e" transform="translate(1040.192 2312.78) rotate(100)"><path class="f" d="M0,1.481V17.127a1.478,1.478,0,0,0,1.479,1.479h14.8a1.48,1.48,0,0,0,1.479-1.479V1.481A1.484,1.484,0,0,0,16.278,0H1.479A1.482,1.482,0,0,0,0,1.481ZM5.627,14.356a1.915,1.915,0,1,1-1.915-1.916A1.916,1.916,0,0,1,5.627,14.356Zm10.284-10.5A1.915,1.915,0,1,1,14,1.945,1.913,1.913,0,0,1,15.911,3.859ZM10.792,9.3A1.915,1.915,0,1,1,8.878,7.39,1.915,1.915,0,0,1,10.792,9.3Z" transform="translate(0 0)"/></g><g class="e" transform="translate(965.525 2195.707) rotate(100)"><path class="f" d="M0,1.481V17.127a1.478,1.478,0,0,0,1.479,1.479h14.8a1.48,1.48,0,0,0,1.479-1.479V1.481A1.484,1.484,0,0,0,16.278,0H1.479A1.482,1.482,0,0,0,0,1.481ZM5.627,14.356a1.915,1.915,0,1,1-1.915-1.916A1.916,1.916,0,0,1,5.627,14.356Zm10.284-10.5A1.915,1.915,0,1,1,14,1.945,1.913,1.913,0,0,1,15.911,3.859ZM10.792,9.3A1.915,1.915,0,1,1,8.878,7.39,1.915,1.915,0,0,1,10.792,9.3Z" transform="translate(0 0)"/></g><g class="e" transform="translate(1044.304 2107.715) rotate(83)"><path class="f" d="M0,1.481V17.127a1.478,1.478,0,0,0,1.479,1.479h14.8a1.48,1.48,0,0,0,1.479-1.479V1.481A1.484,1.484,0,0,0,16.278,0H1.479A1.482,1.482,0,0,0,0,1.481ZM5.627,14.356a1.915,1.915,0,1,1-1.915-1.916A1.916,1.916,0,0,1,5.627,14.356Zm10.284-10.5A1.915,1.915,0,1,1,14,1.945,1.913,1.913,0,0,1,15.911,3.859ZM10.792,9.3A1.915,1.915,0,1,1,8.878,7.39,1.915,1.915,0,0,1,10.792,9.3Z" transform="translate(0 0)"/></g></g><g class="c" transform="translate(81.941 -1270.432) rotate(20)"><path class="d" d="M16.542,0H1.216A1.218,1.218,0,0,0,0,1.216V16.481A1.218,1.218,0,0,0,1.216,17.7H16.542a1.218,1.218,0,0,0,1.216-1.216V1.216A1.218,1.218,0,0,0,16.542,0ZM3.406,16.2a1.911,1.911,0,1,1,1.911-1.911A1.911,1.911,0,0,1,3.406,16.2Zm0-10.886A1.911,1.911,0,1,1,5.316,3.406,1.911,1.911,0,0,1,3.406,5.316ZM8.879,10.79A1.911,1.911,0,1,1,10.79,8.879,1.911,1.911,0,0,1,8.879,10.79ZM14.352,16.2a1.911,1.911,0,1,1,1.911-1.911A1.911,1.911,0,0,1,14.352,16.2Zm0-10.886a1.911,1.911,0,1,1,1.911-1.911A1.911,1.911,0,0,1,14.352,5.316Z" transform="translate(925.056 2041.438) rotate(45)"/><path class="d" d="M16.542,0H1.216A1.218,1.218,0,0,0,0,1.216V16.481A1.218,1.218,0,0,0,1.216,17.7H16.542a1.218,1.218,0,0,0,1.216-1.216V1.216A1.218,1.218,0,0,0,16.542,0ZM3.406,16.2a1.911,1.911,0,1,1,1.911-1.911A1.911,1.911,0,0,1,3.406,16.2Zm0-10.886A1.911,1.911,0,1,1,5.316,3.406,1.911,1.911,0,0,1,3.406,5.316ZM8.879,10.79A1.911,1.911,0,1,1,10.79,8.879,1.911,1.911,0,0,1,8.879,10.79ZM14.352,16.2a1.911,1.911,0,1,1,1.911-1.911A1.911,1.911,0,0,1,14.352,16.2Zm0-10.886a1.911,1.911,0,1,1,1.911-1.911A1.911,1.911,0,0,1,14.352,5.316Z" transform="translate(979.287 2247.1) rotate(45)"/><g class="e" transform="translate(1001.544 2047.615) rotate(90)"><g transform="translate(0 0)"><path class="f" d="M15.785,0H1.973A1.973,1.973,0,0,0,0,1.973V15.785a1.973,1.973,0,0,0,1.973,1.973H15.785a1.973,1.973,0,0,0,1.973-1.973V1.973A1.973,1.973,0,0,0,15.785,0ZM4.44,14.8a1.48,1.48,0,1,1,1.48-1.48A1.478,1.478,0,0,1,4.44,14.8Zm0-8.879a1.48,1.48,0,1,1,1.48-1.48A1.478,1.478,0,0,1,4.44,5.919Zm4.44,4.44a1.48,1.48,0,1,1,1.48-1.48A1.478,1.478,0,0,1,8.879,10.359Zm4.44,4.44a1.48,1.48,0,1,1,1.48-1.48A1.478,1.478,0,0,1,13.319,14.8Zm0-8.879A1.48,1.48,0,1,1,14.8,4.44,1.478,1.478,0,0,1,13.319,5.919Z" transform="translate(0 0)"/></g></g><g class="e" transform="translate(1041.068 2230.93) rotate(90)"><g transform="translate(0 0)"><path class="f" d="M15.785,0H1.973A1.973,1.973,0,0,0,0,1.973V15.785a1.973,1.973,0,0,0,1.973,1.973H15.785a1.973,1.973,0,0,0,1.973-1.973V1.973A1.973,1.973,0,0,0,15.785,0ZM4.44,14.8a1.48,1.48,0,1,1,1.48-1.48A1.478,1.478,0,0,1,4.44,14.8Zm0-8.879a1.48,1.48,0,1,1,1.48-1.48A1.478,1.478,0,0,1,4.44,5.919Zm4.44,4.44a1.48,1.48,0,1,1,1.48-1.48A1.478,1.478,0,0,1,8.879,10.359Zm4.44,4.44a1.48,1.48,0,1,1,1.48-1.48A1.478,1.478,0,0,1,13.319,14.8Zm0-8.879A1.48,1.48,0,1,1,14.8,4.44,1.478,1.478,0,0,1,13.319,5.919Z" transform="translate(0 0)"/></g></g><g class="e" transform="translate(962.766 2114.129) rotate(90)"><g transform="translate(0 0)"><path class="f" d="M15.785,0H1.973A1.973,1.973,0,0,0,0,1.973V15.785a1.973,1.973,0,0,0,1.973,1.973H15.785a1.973,1.973,0,0,0,1.973-1.973V1.973A1.973,1.973,0,0,0,15.785,0ZM4.44,14.8a1.48,1.48,0,1,1,1.48-1.48A1.478,1.478,0,0,1,4.44,14.8Zm0-8.879a1.48,1.48,0,1,1,1.48-1.48A1.478,1.478,0,0,1,4.44,5.919Zm4.44,4.44a1.48,1.48,0,1,1,1.48-1.48A1.478,1.478,0,0,1,8.879,10.359Zm4.44,4.44a1.48,1.48,0,1,1,1.48-1.48A1.478,1.478,0,0,1,13.319,14.8Zm0-8.879A1.48,1.48,0,1,1,14.8,4.44,1.478,1.478,0,0,1,13.319,5.919Z" transform="translate(0 0)"/></g></g><g class="e" transform="translate(990.535 2086.693) rotate(66)"><path class="f" d="M16.345,0H1.412A1.411,1.411,0,0,0,0,1.411V15.537a1.412,1.412,0,0,0,1.412,1.411H16.345a1.414,1.414,0,0,0,1.413-1.411V1.411A1.412,1.412,0,0,0,16.345,0ZM8.879,9.81a1.828,1.828,0,1,1,1.827-1.826A1.828,1.828,0,0,1,8.879,9.81Z" transform="translate(0 0)"/></g><g class="e" transform="translate(1086.154 2349.406) rotate(66)"><path class="f" d="M16.345,0H1.412A1.411,1.411,0,0,0,0,1.411V15.537a1.412,1.412,0,0,0,1.412,1.411H16.345a1.414,1.414,0,0,0,1.413-1.411V1.411A1.412,1.412,0,0,0,16.345,0ZM8.879,9.81a1.828,1.828,0,1,1,1.827-1.826A1.828,1.828,0,0,1,8.879,9.81Z" transform="translate(0 0)"/></g><g class="e" transform="translate(1076.456 2170.203) rotate(92)"><path class="f" d="M0,1.479V17.125A1.478,1.478,0,0,0,1.479,18.6h14.8a1.479,1.479,0,0,0,1.479-1.479V1.479A1.481,1.481,0,0,0,16.278,0H1.479A1.48,1.48,0,0,0,0,1.479ZM5.628,14.354a1.915,1.915,0,1,1-1.915-1.915A1.916,1.916,0,0,1,5.628,14.354Zm10.285-10.5A1.915,1.915,0,1,1,14,1.943,1.917,1.917,0,0,1,15.913,3.858Z" transform="translate(0 0)"/></g><g class="e" transform="translate(1002.104 2142.065) rotate(92)"><path class="f" d="M0,1.479V17.125A1.478,1.478,0,0,0,1.479,18.6h14.8a1.479,1.479,0,0,0,1.479-1.479V1.479A1.481,1.481,0,0,0,16.278,0H1.479A1.48,1.48,0,0,0,0,1.479ZM5.628,14.354a1.915,1.915,0,1,1-1.915-1.915A1.916,1.916,0,0,1,5.628,14.354Zm10.285-10.5A1.915,1.915,0,1,1,14,1.943,1.917,1.917,0,0,1,15.913,3.858Z" transform="translate(0 0)"/></g><g class="e" transform="matrix(0.454, 0.891, -0.891, 0.454, 1076.452, 2278.966)"><path class="f" d="M16.345,0H1.411A1.412,1.412,0,0,0,0,1.412V15.536a1.411,1.411,0,0,0,1.411,1.411H16.345a1.413,1.413,0,0,0,1.413-1.411V1.412A1.414,1.414,0,0,0,16.345,0ZM4.056,5.372A1.827,1.827,0,1,1,5.884,3.546,1.828,1.828,0,0,1,4.056,5.372Zm9.87,9.765a1.827,1.827,0,1,1,1.827-1.827A1.828,1.828,0,0,1,13.926,15.137ZM13.821,5.4a1.827,1.827,0,1,1,1.827-1.826A1.828,1.828,0,0,1,13.821,5.4ZM4.1,15.1a1.827,1.827,0,1,1,1.829-1.829A1.83,1.83,0,0,1,4.1,15.1Z" transform="translate(0 0)"/></g><g class="e" transform="translate(1040.192 2312.78) rotate(100)"><path class="f" d="M0,1.481V17.127a1.478,1.478,0,0,0,1.479,1.479h14.8a1.48,1.48,0,0,0,1.479-1.479V1.481A1.484,1.484,0,0,0,16.278,0H1.479A1.482,1.482,0,0,0,0,1.481ZM5.627,14.356a1.915,1.915,0,1,1-1.915-1.916A1.916,1.916,0,0,1,5.627,14.356Zm10.284-10.5A1.915,1.915,0,1,1,14,1.945,1.913,1.913,0,0,1,15.911,3.859ZM10.792,9.3A1.915,1.915,0,1,1,8.878,7.39,1.915,1.915,0,0,1,10.792,9.3Z" transform="translate(0 0)"/></g><g class="e" transform="translate(965.525 2195.707) rotate(100)"><path class="f" d="M0,1.481V17.127a1.478,1.478,0,0,0,1.479,1.479h14.8a1.48,1.48,0,0,0,1.479-1.479V1.481A1.484,1.484,0,0,0,16.278,0H1.479A1.482,1.482,0,0,0,0,1.481ZM5.627,14.356a1.915,1.915,0,1,1-1.915-1.916A1.916,1.916,0,0,1,5.627,14.356Zm10.284-10.5A1.915,1.915,0,1,1,14,1.945,1.913,1.913,0,0,1,15.911,3.859ZM10.792,9.3A1.915,1.915,0,1,1,8.878,7.39,1.915,1.915,0,0,1,10.792,9.3Z" transform="translate(0 0)"/></g><g class="e" transform="translate(1044.304 2107.715) rotate(83)"><path class="f" d="M0,1.481V17.127a1.478,1.478,0,0,0,1.479,1.479h14.8a1.48,1.48,0,0,0,1.479-1.479V1.481A1.484,1.484,0,0,0,16.278,0H1.479A1.482,1.482,0,0,0,0,1.481ZM5.627,14.356a1.915,1.915,0,1,1-1.915-1.916A1.916,1.916,0,0,1,5.627,14.356Zm10.284-10.5A1.915,1.915,0,1,1,14,1.945,1.913,1.913,0,0,1,15.911,3.859ZM10.792,9.3A1.915,1.915,0,1,1,8.878,7.39,1.915,1.915,0,0,1,10.792,9.3Z" transform="translate(0 0)"/></g></g></g></svg>