<svg xmlns="http://www.w3.org/2000/svg" viewBox="3054 648.96 256 68.04"><defs><style>.a,.c,.d{fill:#55a3bc;}.b{fill:#e5f4f3;}.c{font-size:25px;}.c,.d{font-family:Helvetica-Light, Helvetica;font-weight:300;}.d{font-size:13px;}.e{fill:#bde3d8;}.e,.f,.g{opacity:0.5;}.f{fill:#edf8fb;}.g{fill:#ddf2f9;}</style></defs><g transform="translate(2872)"><g transform="translate(182 648.96)"><path class="a" d="M34.02,68.04A34.02,34.02,0,1,1,68.04,34.02,34.058,34.058,0,0,1,34.02,68.04Zm0-64.638A30.618,30.618,0,1,0,64.638,34.02,30.653,30.653,0,0,0,34.02,3.4Z" transform="translate(0 0)"/><path class="b" d="M30.614,34.53c0-.169,0-.341,0-.511A30.653,30.653,0,0,0,0,3.4V0A34.058,34.058,0,0,1,34.021,34.02q0,.256,0,.511Z" transform="translate(34.019 0)"/><text class="c" transform="translate(27.216 32.355)"><tspan x="0" y="0">3</tspan></text><text class="d" transform="translate(13.608 48.571)"><tspan x="0" y="0">month</tspan></text><circle class="a" cx="1.701" cy="1.701" r="1.701" transform="translate(32.319)"/><circle class="a" cx="2.551" cy="2.551" r="2.551" transform="translate(63.787 32.319)"/></g><g transform="translate(275.555 648.96)"><path class="e" d="M34.02,68.04A34.02,34.02,0,1,1,68.04,34.02,34.058,34.058,0,0,1,34.02,68.04Zm0-64.638A30.618,30.618,0,1,0,64.638,34.02,30.653,30.653,0,0,0,34.02,3.4Z" transform="translate(0 0)"/><path class="f" d="M34.02,68.04A34.02,34.02,0,1,1,68.04,34.02,34.058,34.058,0,0,1,34.02,68.04Zm0-64.638A30.618,30.618,0,1,0,64.638,34.02,30.653,30.653,0,0,0,34.02,3.4Z" transform="translate(0 0)"/><text class="c" transform="translate(27.216 32.355)"><tspan x="0" y="0">9</tspan></text><text class="d" transform="translate(19.562 48.571)"><tspan x="0" y="0">days</tspan></text></g><path class="a" d="M0,34.02A34.059,34.059,0,0,1,34.021,0V3.4A30.618,30.618,0,0,0,21.833,62.107l-.8,3.355A34.074,34.074,0,0,1,0,34.02Z" transform="translate(275.555 648.986)"/><g transform="translate(369.11 648.96)"><path class="g" d="M34.02,68.04A34.02,34.02,0,1,1,68.04,34.02,34.058,34.058,0,0,1,34.02,68.04Zm0-64.638A30.618,30.618,0,1,0,64.638,34.02,30.653,30.653,0,0,0,34.02,3.4Z" transform="translate(0 0)"/><path class="a" d="M30.614,34.53c0-.169,0-.341,0-.511A30.653,30.653,0,0,0,0,3.4V0A34.058,34.058,0,0,1,34.021,34.02q0,.256,0,.511Z" transform="translate(34.019 0)"/><text class="c" transform="translate(22.113 32.355)"><tspan x="0" y="0">15</tspan></text><text class="d" transform="translate(17.01 48.571)"><tspan x="0" y="0">hours</tspan></text><circle class="a" cx="1.701" cy="1.701" r="1.701" transform="translate(32.319)"/><circle class="a" cx="2.551" cy="2.551" r="2.551" transform="translate(63.787 32.319)"/></g></g></svg>